<?xml version="1.0" encoding="utf-8"?><svg xmlns="http://www.w3.org/2000/svg" xmlns:xlink="http://www.w3.org/1999/xlink"><symbol viewBox="0 0 57 32" id="Amex" xmlns="http://www.w3.org/2000/svg"><path fill-rule="evenodd" clip-rule="evenodd" d="M10.224 10L5.03296 21.826H11.248L12.018 19.941H13.779L14.55 21.827H21.39V20.387L22 21.827H25.54L26.149 20.357V21.827H40.376L42.106 19.99L43.726 21.827L51.033 21.842L45.825 15.946L51.033 10H43.839L42.155 11.803L40.586 10H25.109L23.779 13.053L22.42 10H16.219V11.39L15.529 10H10.226H10.224ZM11.427 11.68H14.457L17.9 19.699V11.679H21.219L23.879 17.429L26.329 11.679H29.633V20.166H27.623L27.607 13.516L24.677 20.166H22.88L19.935 13.516V20.166H15.801L15.018 18.263H10.783L10.001 20.164H7.78696L11.427 11.679V11.68ZM39.64 11.68H31.47V20.16H39.513L42.106 17.35L44.605 20.16H47.217L43.42 15.945L47.217 11.679H44.718L42.138 14.458L39.64 11.679V11.68ZM12.9 13.115L11.506 16.505H14.294L12.901 13.115H12.9ZM33.487 14.985V13.435H38.585L40.809 15.912L38.486 18.404H33.487V16.712H37.944V14.986H33.487V14.985Z"/></symbol><symbol viewBox="0 0 24 25" id="ArrowDown" xmlns="http://www.w3.org/2000/svg"><path fill-rule="evenodd" clip-rule="evenodd" d="M12.5327 15.3117C12.2557 15.561 11.8042 15.563 11.5243 15.3163L6 10.4486L7.00331 9.54604L12.0207 13.9672L16.9863 9.5L18 10.3932L12.5327 15.3117Z"/></symbol><symbol viewBox="0 0 24 24" id="ArrowRight" xmlns="http://www.w3.org/2000/svg"><path fill-rule="evenodd" clip-rule="evenodd" d="M18.2896 11.4958C18.5701 11.7743 18.5701 12.2257 18.2896 12.5042L12.7541 18L11.7384 16.9916L16.766 12L11.7384 7.00845L12.7541 6L18.2896 11.4958Z"/><path fill-rule="evenodd" clip-rule="evenodd" d="M17.9972 12.7131H5.5V11.2869H17.9972V12.7131Z"/></symbol><symbol viewBox="0 0 24 24" id="Github" xmlns="http://www.w3.org/2000/svg"><path d="M12 2C10.6868 2 9.38642 2.25866 8.17317 2.7612C6.95991 3.26375 5.85752 4.00035 4.92893 4.92893C3.05357 6.8043 2 9.34784 2 12C2 16.42 4.87 20.17 8.84 21.5C9.34 21.58 9.5 21.27 9.5 21V19.31C6.73 19.91 6.14 17.97 6.14 17.97C5.68 16.81 5.03 16.5 5.03 16.5C4.12 15.88 5.1 15.9 5.1 15.9C6.1 15.97 6.63 16.93 6.63 16.93C7.5 18.45 8.97 18 9.54 17.76C9.63 17.11 9.89 16.67 10.17 16.42C7.95 16.17 5.62 15.31 5.62 11.5C5.62 10.39 6 9.5 6.65 8.79C6.55 8.54 6.2 7.5 6.75 6.15C6.75 6.15 7.59 5.88 9.5 7.17C10.29 6.95 11.15 6.84 12 6.84C12.85 6.84 13.71 6.95 14.5 7.17C16.41 5.88 17.25 6.15 17.25 6.15C17.8 7.5 17.45 8.54 17.35 8.79C18 9.5 18.38 10.39 18.38 11.5C18.38 15.32 16.04 16.16 13.81 16.41C14.17 16.72 14.5 17.33 14.5 18.26V21C14.5 21.27 14.66 21.59 15.17 21.5C19.14 20.16 22 16.42 22 12C22 10.6868 21.7413 9.38642 21.2388 8.17317C20.7362 6.95991 19.9997 5.85752 19.0711 4.92893C18.1425 4.00035 17.0401 3.26375 15.8268 2.7612C14.6136 2.25866 13.3132 2 12 2Z"/></symbol><symbol viewBox="0 0 24 24" id="Instagram" xmlns="http://www.w3.org/2000/svg"><path d="M11.9973 6.86903C9.15795 6.86903 6.86644 9.16058 6.86644 12C6.86644 14.8394 9.15795 17.131 11.9973 17.131C14.8367 17.131 17.1282 14.8394 17.1282 12C17.1282 9.16058 14.8367 6.86903 11.9973 6.86903ZM11.9973 15.3348C10.1611 15.3348 8.66262 13.8362 8.66262 12C8.66262 10.1638 10.1611 8.66525 11.9973 8.66525C13.8335 8.66525 15.332 10.1638 15.332 12C15.332 13.8362 13.8335 15.3348 11.9973 15.3348ZM17.3383 5.46308C16.6754 5.46308 16.14 5.99845 16.14 6.66139C16.14 7.32434 16.6754 7.8597 17.3383 7.8597C18.0013 7.8597 18.5366 7.32684 18.5366 6.66139C18.5368 6.50397 18.5059 6.34806 18.4458 6.20259C18.3856 6.05711 18.2974 5.92493 18.1861 5.81362C18.0748 5.70231 17.9426 5.61405 17.7971 5.5539C17.6516 5.49375 17.4957 5.46289 17.3383 5.46308ZM21.9989 12C21.9989 10.6191 22.0114 9.25064 21.9338 7.87221C21.8563 6.27113 21.4911 4.85017 20.3203 3.67938C19.147 2.50609 17.7286 2.14334 16.1275 2.06579C14.7466 1.98824 13.3782 2.00074 11.9998 2.00074C10.6189 2.00074 9.25051 1.98824 7.8721 2.06579C6.27105 2.14334 4.85012 2.50859 3.67935 3.67938C2.50608 4.85267 2.14334 6.27113 2.06579 7.87221C1.98824 9.25314 2.00074 10.6216 2.00074 12C2.00074 13.3784 1.98824 14.7494 2.06579 16.1278C2.14334 17.7289 2.50858 19.1498 3.67935 20.3206C4.85262 21.4939 6.27105 21.8567 7.8721 21.9342C9.25301 22.0118 10.6214 21.9993 11.9998 21.9993C13.3807 21.9993 14.7491 22.0118 16.1275 21.9342C17.7286 21.8567 19.1495 21.4914 20.3203 20.3206C21.4936 19.1473 21.8563 17.7289 21.9338 16.1278C22.0139 14.7494 21.9989 13.3809 21.9989 12ZM19.7974 17.899C19.6148 18.3543 19.3947 18.6945 19.0419 19.0448C18.6892 19.3975 18.3515 19.6176 17.8962 19.8003C16.5803 20.3231 13.4558 20.2055 11.9973 20.2055C10.5389 20.2055 7.4118 20.3231 6.09593 19.8028C5.64064 19.6201 5.30041 19.4 4.95018 19.0473C4.59745 18.6945 4.37731 18.3568 4.19469 17.9015C3.67434 16.5831 3.79192 13.4585 3.79192 12C3.79192 10.5415 3.67434 7.4144 4.19469 6.09851C4.37731 5.6432 4.59745 5.30298 4.95018 4.95274C5.30291 4.6025 5.64064 4.37985 6.09593 4.19723C7.4118 3.67688 10.5389 3.79446 11.9973 3.79446C13.4558 3.79446 16.5828 3.67688 17.8987 4.19723C18.354 4.37985 18.6942 4.6 19.0444 4.95274C19.3972 5.30548 19.6173 5.6432 19.7999 6.09851C20.3203 7.4144 20.2027 10.5415 20.2027 12C20.2027 13.4585 20.3203 16.5831 19.7974 17.899Z"/></symbol><symbol viewBox="0 0 16 26" id="LogoDark" xmlns="http://www.w3.org/2000/svg"><path d="M12.4769 4.34848L6.20402 0.555028C5.61195 0.192858 4.93884 0.00143753 4.25319 0.000244141C2.20945 0.000244141 0.334752 1.71219 0.334752 4.10496V18.3073L12.4769 10.9669C14.9083 9.49459 14.9083 5.8199 12.4769 4.34848ZM3.84837 11.4479V3.86787L10.1163 7.6566L3.84837 11.4479Z"/><path d="M15.8489 25.9844C15.8489 26.0273 3.99081 25.966 3.99081 25.966L2.94336 25.8425C1.24672 25.644 -0.0557464 24.1232 0.00196809 22.3346C0.00196809 22.2917 0.00565199 22.2518 0.00810792 22.2102C0.0547076 21.4364 0.326076 20.6961 0.78582 20.0884C0.972526 19.8461 1.20091 19.6425 1.45916 19.4882L10.4782 14.0724C12.3414 12.9534 13.8931 12.562 14.6999 10.534C14.9974 9.77562 15.126 8.95611 15.0757 8.13784L15.0446 7.58649L15.9651 12.9204C16.083 13.8263 15.9013 14.7537 15.4211 15.5168C15.1326 15.9784 14.7475 16.3652 14.2951 16.6478L3.82954 21.8943C3.81908 21.9005 3.80897 21.9074 3.79925 21.9148C3.51273 22.1292 3.68955 22.6068 4.04034 22.5867L12.7515 22.6402C14.4433 22.5416 15.8526 24.2111 15.8489 25.9844Z"/></symbol><symbol viewBox="0 0 16 27" id="LogoWhite" xmlns="http://www.w3.org/2000/svg"><path d="M12.4769 4.84854L6.20402 1.05509C5.61195 0.692919 4.93884 0.501499 4.25319 0.500305C2.20945 0.500305 0.334752 2.21225 0.334752 4.60502V18.8073L12.4769 11.4669C14.9083 9.99466 14.9083 6.31996 12.4769 4.84854ZM3.84837 11.948V4.36793L10.1163 8.15667L3.84837 11.948Z"/><path d="M15.8489 26.4844C15.8489 26.5273 3.99081 26.466 3.99081 26.466L2.94336 26.3425C1.24672 26.144 -0.0557464 24.6233 0.00196809 22.8346C0.00196809 22.7917 0.00565199 22.7519 0.00810792 22.7103C0.0547076 21.9365 0.326076 21.1961 0.78582 20.5885C0.972526 20.3461 1.20091 20.1425 1.45916 19.9882L10.4782 14.5725C12.3414 13.4535 13.8931 13.062 14.6999 11.0341C14.9974 10.2757 15.126 9.45617 15.0757 8.6379L15.0446 8.08655L15.9651 13.4204C16.083 14.3264 15.9013 15.2537 15.4211 16.0169C15.1326 16.4785 14.7475 16.8653 14.2951 17.1479L3.82954 22.3943C3.81908 22.4006 3.80897 22.4074 3.79925 22.4149C3.51273 22.6293 3.68955 23.1069 4.04034 23.0867L12.7515 23.1403C14.4433 23.0417 15.8526 24.7112 15.8489 26.4844Z"/></symbol><symbol viewBox="0 0 31 32" id="Mastercard" xmlns="http://www.w3.org/2000/svg"><g clip-path="url(#jclip0_7408_34)"><path d="M15.017 22.85C13.3637 24.2432 11.27 25.005 9.108 25C4.078 25 0 20.97 0 16C0 11.03 4.078 7.00002 9.108 7.00002C11.363 7.00002 13.426 7.81002 15.017 9.15002C16.67 7.75705 18.7633 6.99526 20.925 7.00002C25.955 7.00002 30.033 11.03 30.033 16C30.033 20.97 25.955 25 20.925 25C18.7633 25.0048 16.67 24.243 15.017 22.85Z"/><path d="M15.017 22.85C16.0186 22.0115 16.8242 20.9636 17.377 19.7801C17.9299 18.5966 18.2166 17.3063 18.217 16C18.217 13.257 16.975 10.8 15.017 9.15002C16.67 7.75705 18.7633 6.99526 20.925 7.00002C25.955 7.00002 30.033 11.03 30.033 16C30.033 20.97 25.955 25 20.925 25C18.7633 25.0048 16.67 24.243 15.017 22.85Z"/><path d="M15.017 22.85C16.975 21.2 18.217 18.743 18.217 16C18.217 13.257 16.975 10.8 15.017 9.15002C14.0154 9.98856 13.2098 11.0365 12.657 12.22C12.1041 13.4035 11.8174 14.6938 11.817 16C11.817 18.743 13.058 21.2 15.017 22.85Z"/></g><defs><clipPath id="jclip0_7408_34"><rect width="30.033" height="32"/></clipPath></defs></symbol><symbol viewBox="0 0 24 25" id="Search" xmlns="http://www.w3.org/2000/svg"><path d="M11.2252 18.9799C13.28 18.9799 15.2507 18.1636 16.7037 16.7106C18.1566 15.2577 18.9729 13.287 18.9729 11.2322C18.9729 9.17737 18.1566 7.20672 16.7037 5.75374C15.2507 4.30077 13.28 3.4845 11.2252 3.4845C9.17041 3.4845 7.19976 4.30077 5.74679 5.75374C4.29381 7.20672 3.47754 9.17737 3.47754 11.2322C3.47754 13.287 4.29381 15.2577 5.74679 16.7106C7.19976 18.1636 9.17041 18.9799 11.2252 18.9799Z" stroke-width="1.44" stroke-linecap="round" stroke-linejoin="round"/><path d="M20.5225 21.5155L16.5782 17.5712" stroke-width="1.44" stroke-linecap="round" stroke-linejoin="round"/></symbol><symbol viewBox="0 0 24 25" id="User" xmlns="http://www.w3.org/2000/svg"><path fill-rule="evenodd" clip-rule="evenodd" d="M9.11604 7.58299C9.88092 6.81812 10.9183 6.38842 12 6.38842C13.0817 6.38842 14.1191 6.81812 14.884 7.58299C15.6488 8.34787 16.0785 9.38525 16.0785 10.4669C16.0785 11.5486 15.6488 12.586 14.884 13.3509C14.1191 14.1158 13.0817 14.5455 12 14.5455C10.9183 14.5455 9.88092 14.1158 9.11604 13.3509C8.35117 12.586 7.92147 11.5486 7.92147 10.4669C7.92147 9.38525 8.35117 8.34787 9.11604 7.58299ZM12 7.76864C11.2844 7.76864 10.598 8.05292 10.092 8.55895C9.58597 9.06498 9.30169 9.75131 9.30169 10.4669C9.30169 11.1826 9.58597 11.8689 10.092 12.3749C10.598 12.881 11.2844 13.1653 12 13.1653C12.7156 13.1653 13.402 12.881 13.908 12.3749C14.414 11.8689 14.6983 11.1826 14.6983 10.4669C14.6983 9.75131 14.414 9.06498 13.908 8.55895C13.402 8.05292 12.7156 7.76864 12 7.76864Z"/><path fill-rule="evenodd" clip-rule="evenodd" d="M12 16.5804C10.9559 16.5804 9.9293 16.849 9.01897 17.3603C8.10864 17.8717 7.34516 18.6087 6.80193 19.5003C6.60364 19.8258 6.17902 19.9289 5.85353 19.7307C5.52804 19.5324 5.42493 19.1077 5.62323 18.7823C6.28964 17.6884 7.22624 16.7843 8.343 16.157C9.45975 15.5297 10.7191 15.2002 12 15.2002C13.2809 15.2002 14.5402 15.5297 15.657 16.157C16.7738 16.7843 17.7104 17.6884 18.3768 18.7823C18.5751 19.1077 18.472 19.5324 18.1465 19.7307C17.821 19.9289 17.3964 19.8258 17.1981 19.5003C16.6548 18.6087 15.8914 17.8717 14.981 17.3603C14.0707 16.849 13.0441 16.5804 12 16.5804Z"/><path fill-rule="evenodd" clip-rule="evenodd" d="M5.28249 5.78249C7.06408 4.00089 9.48044 3 12 3C14.5196 3 16.9359 4.00089 18.7175 5.78249C20.4991 7.56408 21.5 9.98044 21.5 12.5C21.5 15.0196 20.4991 17.4359 18.7175 19.2175C16.9359 20.9991 14.5196 22 12 22C9.48044 22 7.06408 20.9991 5.28249 19.2175C3.50089 17.4359 2.5 15.0196 2.5 12.5C2.5 9.98044 3.50089 7.56408 5.28249 5.78249ZM12 4.38022C9.8465 4.38022 7.7812 5.23569 6.25845 6.75845C4.73569 8.2812 3.88022 10.3465 3.88022 12.5C3.88022 14.6535 4.73569 16.7188 6.25845 18.2416C7.7812 19.7643 9.8465 20.6198 12 20.6198C14.1535 20.6198 16.2188 19.7643 17.7416 18.2416C19.2643 16.7188 20.1198 14.6535 20.1198 12.5C20.1198 10.3465 19.2643 8.2812 17.7416 6.75845C16.2188 5.23569 14.1535 4.38022 12 4.38022Z"/></symbol><symbol viewBox="0 0 43 32" id="Visa" xmlns="http://www.w3.org/2000/svg"><g clip-path="url(#oclip0_7408_38)"><path d="M27.515 9.00008C28.5598 8.99548 29.5959 9.19135 30.567 9.57708L30.104 12.5031L29.796 12.3601C29.003 11.9927 28.1355 11.8147 27.262 11.8401C25.919 11.8401 25.316 12.4311 25.302 13.0081C25.302 13.6431 26.032 14.0611 27.222 14.6811C29.182 15.6471 30.09 16.8291 30.077 18.3711C30.049 21.1841 27.725 23.0001 24.155 23.0001C22.629 22.9851 21.159 22.6531 20.361 22.2791L20.837 19.2361L21.285 19.4531C22.391 19.9581 23.119 20.1731 24.477 20.1731C25.457 20.1731 26.507 19.7551 26.52 18.8481C26.52 18.2561 26.073 17.8241 24.757 17.1601C23.469 16.5111 21.747 15.4301 21.775 13.4841C21.789 10.8451 24.155 9.00008 27.515 9.00008ZM14.831 22.7981H18.233L20.361 9.24608H16.959L14.831 22.7981Z"/><path fill-rule="evenodd" clip-rule="evenodd" d="M39.288 9.24608H36.657C35.845 9.24608 35.229 9.49108 34.878 10.3701L29.825 22.7981H33.395L34.109 20.7651H38.477C38.575 21.2411 38.883 22.7981 38.883 22.7981H42.033L39.288 9.24608ZM35.088 17.9961L36.448 14.2061C36.441 14.2161 36.486 14.0901 36.552 13.9011C36.65 13.6211 36.795 13.2081 36.895 12.9081L37.132 14.0751C37.132 14.0751 37.777 17.3191 37.917 17.9971H35.089L35.088 17.9961Z"/><path d="M8.65696 18.4871L11.989 9.24608H15.587L10.239 22.7841H6.64096L3.58896 10.9321C5.74496 12.1001 7.67696 14.4501 8.29296 16.6121L8.65696 18.4871Z"/><path d="M5.56296 9.24608H0.0889592L0.032959 9.51908C4.30296 10.6441 7.13096 13.3551 8.29296 16.6131L7.10296 10.3851C6.90696 9.51908 6.30496 9.27508 5.56296 9.24508V9.24608Z"/></g><defs><clipPath id="oclip0_7408_38"><rect width="42" height="32.0001" transform="translate(0.032959)"/></clipPath></defs></symbol><symbol viewBox="0 0 24 24" id="Youtube" xmlns="http://www.w3.org/2000/svg"><path d="M10 15L15.19 12L10 9V15ZM21.56 7.17C21.69 7.64 21.78 8.27 21.84 9.07C21.91 9.87 21.94 10.56 21.94 11.16L22 12C22 14.19 21.84 15.8 21.56 16.83C21.31 17.73 20.73 18.31 19.83 18.56C19.36 18.69 18.5 18.78 17.18 18.84C15.88 18.91 14.69 18.94 13.59 18.94L12 19C7.81 19 5.2 18.84 4.17 18.56C3.27 18.31 2.69 17.73 2.44 16.83C2.31 16.36 2.22 15.73 2.16 14.93C2.09 14.13 2.06 13.44 2.06 12.84L2 12C2 9.81 2.16 8.2 2.44 7.17C2.69 6.27 3.27 5.69 4.17 5.44C4.64 5.31 5.5 5.22 6.82 5.16C8.12 5.09 9.31 5.06 10.41 5.06L12 5C16.19 5 18.8 5.16 19.83 5.44C20.73 5.69 21.31 6.27 21.56 7.17Z"/></symbol><symbol viewBox="0 0 24 24" id="car" xmlns="http://www.w3.org/2000/svg"><path d="M15.7007 16.7309V5.0985C15.7007 4.15172 14.9332 3.38422 13.9864 3.38422H2.91838C1.97162 3.38422 1.2041 4.15172 1.2041 5.0985V16.4568C1.2041 17.4036 1.97162 18.171 2.91838 18.171H4.2041M22.7959 11.4969H15.7031M20.489 17.8512H21.0799C22.0267 17.8512 22.7942 17.0837 22.7942 16.1369V10.9924L20.4072 6.10522C20.1197 5.5166 19.5219 5.14328 18.8667 5.14328H16.0099M14.7037 18.1707H9.66797M4.28914 18.2226C4.28914 18.8573 4.54128 19.4661 4.99008 19.9149C5.43888 20.3637 6.04758 20.6158 6.68229 20.6158C7.31699 20.6158 7.92569 20.3637 8.37449 19.9149C8.82329 19.4661 9.07543 18.8573 9.07543 18.2226C9.07543 17.5879 8.82329 16.9792 8.37449 16.5304C7.92569 16.0816 7.31699 15.8295 6.68229 15.8295C6.04758 15.8295 5.43888 16.0816 4.99008 16.5304C4.54128 16.9792 4.28914 17.5879 4.28914 18.2226ZM15.1526 18.2226C15.1526 18.8573 15.4047 19.4661 15.8535 19.9149C16.3023 20.3637 16.911 20.6158 17.5457 20.6158C18.1804 20.6158 18.7891 20.3637 19.2379 19.9149C19.6867 19.4661 19.9389 18.8573 19.9389 18.2226C19.9389 17.5879 19.6867 16.9792 19.2379 16.5304C18.7891 16.0816 18.1804 15.8295 17.5457 15.8295C16.911 15.8295 16.3023 16.0816 15.8535 16.5304C15.4047 16.9792 15.1526 17.5879 15.1526 18.2226Z" stroke-width="1.71429" stroke-linecap="round" stroke-linejoin="round"/></symbol><symbol viewBox="0 0 20 21" id="card" xmlns="http://www.w3.org/2000/svg"><path d="M1 1.5H4.38321L5.58853 13.4769C5.63862 13.8071 5.80643 14.108 6.06102 14.3243C6.31561 14.5406 6.63984 14.6576 6.97395 14.6538H15.7021C16.0042 14.6696 16.3032 14.5861 16.5534 14.4161C16.8035 14.2461 16.9912 13.9989 17.0875 13.7123L18.9302 8.17385C18.999 7.96564 19.0173 7.74406 18.9836 7.52739C18.9498 7.31072 18.865 7.10517 18.7362 6.92769C18.6021 6.73894 18.4227 6.58681 18.2146 6.48522C18.0065 6.38362 17.7761 6.33581 17.5447 6.34615H4.8681" stroke-width="1.42857" stroke-linecap="round" stroke-linejoin="round"/><path d="M15.4666 19.5C15.2829 19.5 15.1067 19.427 14.9768 19.2972C14.8469 19.1674 14.7739 18.9913 14.7739 18.8077C14.7739 18.6241 14.8469 18.448 14.9768 18.3181C15.1067 18.1883 15.2829 18.1154 15.4666 18.1154C15.6504 18.1154 15.8266 18.1883 15.9565 18.3181C16.0864 18.448 16.1594 18.6241 16.1594 18.8077C16.1594 18.9913 16.0864 19.1674 15.9565 19.2972C15.8266 19.427 15.6504 19.5 15.4666 19.5Z" stroke-width="1.42857" stroke-linecap="round" stroke-linejoin="round"/><path d="M6.46127 19.5C6.27755 19.5 6.10135 19.427 5.97145 19.2972C5.84154 19.1674 5.76855 18.9913 5.76855 18.8077C5.76855 18.6241 5.84154 18.448 5.97145 18.3181C6.10135 18.1883 6.27755 18.1154 6.46127 18.1154C6.64499 18.1154 6.82118 18.1883 6.95109 18.3181C7.081 18.448 7.15398 18.6241 7.15398 18.8077C7.15398 18.9913 7.081 19.1674 6.95109 19.2972C6.82118 19.427 6.64499 19.5 6.46127 19.5Z" stroke-width="1.42857" stroke-linecap="round" stroke-linejoin="round"/><path d="M9.56201 9.11536V11.8846" stroke-width="1.42857" stroke-linecap="round" stroke-linejoin="round"/><path d="M13.7183 9.11536V11.8846" stroke-width="1.42857" stroke-linecap="round" stroke-linejoin="round"/></symbol><symbol viewBox="0 0 24 24" id="medal" xmlns="http://www.w3.org/2000/svg"><path d="M6.05174 13.2695L3 18.5764L6.29748 17.6893L7.18103 21L9.82887 16.3955M17.9483 13.2695L21 18.5764L17.7025 17.6893L16.819 21L14.1712 16.3955M18.8587 9.88992C18.8587 13.6951 15.7862 16.7799 11.9962 16.7799C8.20619 16.7799 5.13379 13.6951 5.13379 9.88992C5.13379 6.08472 8.20619 3 11.9962 3C15.7862 3 18.8587 6.08472 18.8587 9.88992ZM12.277 6.14906L13.2223 8.05825C13.2434 8.10653 13.277 8.14832 13.3194 8.17934C13.3619 8.21036 13.4119 8.2295 13.4641 8.23481L15.5635 8.55486C15.6236 8.5627 15.6801 8.58754 15.7266 8.62646C15.7731 8.66539 15.8076 8.7168 15.826 8.77467C15.8444 8.83256 15.8461 8.89452 15.8308 8.95329C15.8154 9.01208 15.7837 9.06527 15.7394 9.10664L14.1896 10.5854C14.1665 10.6297 14.1544 10.6789 14.1544 10.7289C14.1544 10.7789 14.1665 10.8281 14.1896 10.8724L14.4864 12.9692C14.499 13.0298 14.4939 13.0928 14.4716 13.1505C14.4493 13.2082 14.4108 13.2582 14.3608 13.2945C14.3108 13.3307 14.2513 13.3515 14.1897 13.3545C14.1281 13.3575 14.067 13.3425 14.0137 13.3113L12.1451 12.318C12.0968 12.2961 12.0443 12.2848 11.9912 12.2848C11.9382 12.2848 11.8857 12.2961 11.8373 12.318L9.96876 13.3113C9.9155 13.3425 9.85434 13.3575 9.79273 13.3545C9.73113 13.3515 9.6717 13.3307 9.62168 13.2945C9.57164 13.2582 9.53315 13.2082 9.51087 13.1505C9.48857 13.0928 9.48345 13.0298 9.49612 12.9692L9.84786 10.8724C9.86298 10.8237 9.86587 10.772 9.85629 10.722C9.84669 10.6719 9.82491 10.625 9.79289 10.5854L8.24307 9.0956C8.20196 9.0538 8.1731 9.00143 8.15966 8.94426C8.14623 8.88706 8.14873 8.82727 8.1669 8.77143C8.18505 8.71559 8.21818 8.66583 8.26263 8.62763C8.30709 8.58943 8.36116 8.56425 8.41893 8.55486L10.5183 8.24585C10.5706 8.24054 10.6205 8.2214 10.663 8.19038C10.7055 8.15935 10.739 8.11756 10.7602 8.06928L11.7055 6.1601C11.7307 6.10605 11.7706 6.06019 11.8205 6.0277C11.8704 5.99521 11.9283 5.97737 11.9878 5.97622C12.0473 5.97508 12.1059 5.99065 12.157 6.02121C12.2081 6.05175 12.2497 6.09604 12.277 6.14906Z" stroke-width="1.43" stroke-linecap="round" stroke-linejoin="round"/></symbol><symbol viewBox="0 0 24 24" id="safety" xmlns="http://www.w3.org/2000/svg"><path d="M15.7272 8.27901L10.7633 13.8604L8.28131 11.9999M12.443 19.9176C12.1579 20.0275 11.842 20.0275 11.5569 19.9176C9.33201 19.0638 7.41857 17.5557 6.06934 15.5921C4.7201 13.6287 3.99856 11.3024 4 8.92041V5.2301C4 4.90386 4.12967 4.59097 4.36048 4.36029C4.5913 4.1296 4.90435 4 5.23077 4H18.7692C19.0956 4 19.4087 4.1296 19.6395 4.36029C19.8703 4.59097 20 4.90386 20 5.2301V8.92041C20.0014 11.3024 19.2799 13.6287 17.9307 15.5921C16.5814 17.5557 14.6679 19.0638 12.443 19.9176Z" stroke-width="1.43" stroke-linecap="round" stroke-linejoin="round"/></symbol></svg>