<?xml version="1.0" encoding="utf-8"?><svg viewBox="0 0 57 32" xmlns="http://www.w3.org/2000/svg" xmlns:xlink="http://www.w3.org/1999/xlink"><style>:root>svg{display:none}:root>svg:target{display:block}</style><svg fill="none" viewBox="0 0 57 32" id="Amex" xmlns="http://www.w3.org/2000/svg"><path fill-rule="evenodd" clip-rule="evenodd" d="M10.224 10 5.033 21.826h6.215l.77-1.885h1.761l.771 1.886h6.84v-1.44l.61 1.44h3.54l.609-1.47v1.47h14.227l1.73-1.837 1.62 1.837 7.307.015-5.208-5.896L51.033 10h-7.194l-1.684 1.803L40.586 10H25.109l-1.33 3.053L22.42 10h-6.201v1.39l-.69-1.39h-5.305Zm1.203 1.68h3.03l3.443 8.019v-8.02h3.319l2.66 5.75 2.45-5.75h3.304v8.487h-2.01l-.016-6.65-2.93 6.65H22.88l-2.945-6.65v6.65h-4.134l-.783-1.903h-4.235l-.782 1.901H7.787l3.64-8.485v.001Zm28.213 0h-8.17v8.48h8.043l2.593-2.81 2.499 2.81h2.612l-3.797-4.215 3.797-4.266h-2.499l-2.58 2.779-2.498-2.779v.001ZM12.9 13.115l-1.394 3.39h2.788l-1.393-3.39H12.9Zm20.587 1.87v-1.55h5.098l2.224 2.477-2.323 2.492h-4.999v-1.692h4.457v-1.726h-4.457v-.001Z" fill="#016FD0"/></svg><svg fill="none" viewBox="0 0 24 25" id="ArrowDown" xmlns="http://www.w3.org/2000/svg"><path fill-rule="evenodd" clip-rule="evenodd" d="M12.533 15.312a.776.776 0 0 1-1.009.004L6 10.45l1.003-.903 5.018 4.421L16.986 9.5l1.014.893-5.467 4.919Z" fill="#5C5F6A"/></svg><svg fill="none" viewBox="0 0 24 24" id="ArrowRight" xmlns="http://www.w3.org/2000/svg"><path fill-rule="evenodd" clip-rule="evenodd" d="M18.29 11.496a.71.71 0 0 1 0 1.008L12.754 18l-1.016-1.008L16.766 12l-5.028-4.992L12.754 6l5.536 5.496Z" fill="#fff"/><path fill-rule="evenodd" clip-rule="evenodd" d="M17.997 12.713H5.5v-1.426h12.497v1.426Z" fill="#fff"/></svg><svg fill="none" viewBox="0 0 24 24" id="Github" xmlns="http://www.w3.org/2000/svg"><path d="M12 2A10 10 0 0 0 2 12c0 4.42 2.87 8.17 6.84 9.5.5.08.66-.23.66-.5v-1.69c-2.77.6-3.36-1.34-3.36-1.34-.46-1.16-1.11-1.47-1.11-1.47-.91-.62.07-.6.07-.6 1 .07 1.53 1.03 1.53 1.03.87 1.52 2.34 1.07 2.91.83.09-.65.35-1.09.63-1.34-2.22-.25-4.55-1.11-4.55-4.92 0-1.11.38-2 1.03-2.71-.1-.25-.45-1.29.1-2.64 0 0 .84-.27 2.75 1.02.79-.22 1.65-.33 2.5-.33.85 0 1.71.11 2.5.33 1.91-1.29 2.75-1.02 2.75-1.02.55 1.35.2 2.39.1 2.64.65.71 1.03 1.6 1.03 2.71 0 3.82-2.34 4.66-4.57 4.91.36.31.69.92.69 1.85V21c0 .27.16.59.67.5C19.14 20.16 22 16.42 22 12A10 10 0 0 0 12 2Z" fill="#5C5F6A"/></svg><svg fill="none" viewBox="0 0 24 24" id="Instagram" xmlns="http://www.w3.org/2000/svg"><path d="M11.997 6.869A5.124 5.124 0 0 0 6.867 12a5.124 5.124 0 0 0 5.13 5.131c2.84 0 5.131-2.292 5.131-5.131a5.124 5.124 0 0 0-5.13-5.131Zm0 8.466A3.342 3.342 0 0 1 8.663 12a3.342 3.342 0 0 1 3.334-3.335A3.342 3.342 0 0 1 15.332 12a3.342 3.342 0 0 1-3.335 3.335Zm5.341-9.872c-.663 0-1.198.535-1.198 1.198 0 .663.535 1.199 1.198 1.199a1.195 1.195 0 0 0 1.108-1.657 1.198 1.198 0 0 0-1.108-.74ZM21.998 12c0-1.38.013-2.75-.064-4.128-.078-1.6-.443-3.022-1.614-4.193-1.173-1.173-2.591-1.536-4.192-1.613C14.747 1.988 13.378 2 12 2c-1.381 0-2.75-.013-4.128.065-1.601.077-3.022.443-4.193 1.613-1.173 1.174-1.536 2.592-1.613 4.193C1.988 9.253 2 10.622 2 12c0 1.378-.013 2.75.065 4.128.077 1.6.443 3.022 1.613 4.193 1.174 1.173 2.592 1.536 4.193 1.613 1.381.078 2.75.065 4.128.065 1.38 0 2.75.013 4.128-.065 1.6-.077 3.021-.443 4.192-1.613 1.174-1.174 1.536-2.592 1.614-4.193.08-1.379.065-2.747.065-4.128Zm-2.2 5.899a3.179 3.179 0 0 1-.756 1.146c-.353.352-.69.573-1.146.755-1.316.523-4.44.405-5.899.405-1.458 0-4.585.118-5.901-.402a3.18 3.18 0 0 1-1.146-.756 3.201 3.201 0 0 1-.755-1.146c-.52-1.318-.403-4.442-.403-5.901 0-1.459-.118-4.586.403-5.901.182-.456.402-.796.755-1.146.353-.35.69-.573 1.146-.756 1.316-.52 4.443-.403 5.901-.403 1.459 0 4.586-.117 5.902.403.455.183.795.403 1.145.756a3.2 3.2 0 0 1 .756 1.146c.52 1.315.403 4.442.403 5.901 0 1.459.117 4.583-.406 5.899Z" fill="#5C5F6A"/></svg><svg fill="none" viewBox="0 0 16 26" id="LogoDark" xmlns="http://www.w3.org/2000/svg"><path d="M12.477 4.348 6.204.555A3.748 3.748 0 0 0 4.254 0C2.208 0 .333 1.712.333 4.105v14.202l12.143-7.34c2.431-1.472 2.431-5.147 0-6.619Zm-8.629 7.1v-7.58l6.268 3.789-6.268 3.79Z" fill="#0E1422"/><path d="M15.849 25.984c0 .043-11.858-.018-11.858-.018l-1.048-.123c-1.696-.199-2.999-1.72-2.941-3.508 0-.043.004-.083.006-.125a3.908 3.908 0 0 1 .778-2.122c.187-.242.415-.446.673-.6l9.02-5.416c1.862-1.119 3.414-1.51 4.22-3.538a5.623 5.623 0 0 0 .377-2.396l-.031-.552.92 5.334c.118.906-.064 1.834-.544 2.597a3.547 3.547 0 0 1-1.126 1.13L3.83 21.895a.317.317 0 0 0-.03.02c-.287.215-.11.693.24.673l8.711.053c1.692-.098 3.102 1.571 3.098 3.344Z" fill="#0E1422"/></svg><svg fill="none" viewBox="0 0 16 27" id="LogoWhite" xmlns="http://www.w3.org/2000/svg"><path d="M12.477 4.849 6.204 1.055A3.748 3.748 0 0 0 4.254.5C2.208.5.333 2.212.333 4.605v14.202l12.143-7.34c2.431-1.472 2.431-5.147 0-6.618Zm-8.629 7.099v-7.58l6.268 3.789-6.268 3.791Z" fill="#fff"/><path d="M15.849 26.484c0 .043-11.858-.018-11.858-.018l-1.048-.123c-1.696-.199-2.999-1.72-2.941-3.508 0-.043.004-.083.006-.125a3.908 3.908 0 0 1 .778-2.122c.187-.242.415-.446.673-.6l9.02-5.415c1.862-1.12 3.414-1.511 4.22-3.539a5.623 5.623 0 0 0 .377-2.396l-.031-.551.92 5.333c.118.906-.064 1.834-.544 2.597a3.547 3.547 0 0 1-1.126 1.13L3.83 22.395a.318.318 0 0 0-.03.02c-.287.215-.11.693.24.673l8.711.053c1.692-.098 3.102 1.571 3.098 3.344Z" fill="#fff"/></svg><svg fill="none" viewBox="0 0 31 32" id="Mastercard" xmlns="http://www.w3.org/2000/svg"><g clip-path="url(#ja)"><path d="M15.017 22.85A9.137 9.137 0 0 1 9.108 25C4.078 25 0 20.97 0 16s4.078-9 9.108-9c2.255 0 4.318.81 5.909 2.15A9.137 9.137 0 0 1 20.925 7c5.03 0 9.108 4.03 9.108 9s-4.078 9-9.108 9a9.137 9.137 0 0 1-5.908-2.15Z" fill="#ED0006"/><path d="M15.017 22.85a8.935 8.935 0 0 0 3.2-6.85c0-2.743-1.242-5.2-3.2-6.85A9.137 9.137 0 0 1 20.925 7c5.03 0 9.108 4.03 9.108 9s-4.078 9-9.108 9a9.137 9.137 0 0 1-5.908-2.15Z" fill="#F9A000"/><path d="M15.017 22.85a8.937 8.937 0 0 0 3.2-6.85c0-2.743-1.242-5.2-3.2-6.85a8.936 8.936 0 0 0-3.2 6.85c0 2.743 1.241 5.2 3.2 6.85Z" fill="#FF5E00"/></g><defs><clipPath id="ja"><path fill="#fff" d="M0 0h30.033v32H0z"/></clipPath></defs></svg><svg fill="none" viewBox="0 0 24 25" id="Search" xmlns="http://www.w3.org/2000/svg"><path d="M11.225 18.98a7.748 7.748 0 1 0 0-15.496 7.748 7.748 0 0 0 0 15.496ZM20.523 21.515l-3.945-3.944" stroke="#878A92" stroke-width="1.44" stroke-linecap="round" stroke-linejoin="round"/></svg><svg fill="none" viewBox="0 0 24 25" id="User" xmlns="http://www.w3.org/2000/svg"><path fill-rule="evenodd" clip-rule="evenodd" d="M9.116 7.583a4.079 4.079 0 1 1 5.768 5.768 4.079 4.079 0 0 1-5.768-5.768ZM12 7.769a2.698 2.698 0 1 0 0 5.396 2.698 2.698 0 0 0 0-5.396Z" fill="#5C5F6A"/><path fill-rule="evenodd" clip-rule="evenodd" d="M12 16.58a6.088 6.088 0 0 0-5.198 2.92.69.69 0 0 1-1.179-.718 7.467 7.467 0 0 1 12.754 0 .69.69 0 1 1-1.179.718A6.088 6.088 0 0 0 12 16.58Z" fill="#5C5F6A"/><path fill-rule="evenodd" clip-rule="evenodd" d="M5.282 5.782a9.5 9.5 0 1 1 13.435 13.435A9.5 9.5 0 0 1 5.282 5.782ZM12 4.38a8.12 8.12 0 1 0 0 16.24 8.12 8.12 0 0 0 0-16.24Z" fill="#5C5F6A"/></svg><svg fill="none" viewBox="0 0 43 32" id="Visa" xmlns="http://www.w3.org/2000/svg"><g clip-path="url(#oa)"><path d="M27.515 9a8.17 8.17 0 0 1 3.052.577l-.463 2.926-.308-.143a5.638 5.638 0 0 0-2.534-.52c-1.343 0-1.946.591-1.96 1.168 0 .635.73 1.053 1.92 1.673 1.96.966 2.868 2.148 2.855 3.69-.028 2.813-2.352 4.63-5.922 4.63-1.526-.016-2.996-.348-3.794-.722l.476-3.043.448.217c1.106.505 1.834.72 3.192.72.98 0 2.03-.418 2.043-1.325 0-.592-.447-1.024-1.763-1.688-1.288-.649-3.01-1.73-2.982-3.676.014-2.639 2.38-4.484 5.74-4.484ZM14.831 22.798h3.402l2.128-13.552h-3.402l-2.128 13.552Z" fill="#00579F"/><path fill-rule="evenodd" clip-rule="evenodd" d="M39.288 9.246h-2.631c-.812 0-1.428.245-1.779 1.124l-5.053 12.428h3.57l.714-2.033h4.368c.098.476.406 2.033.406 2.033h3.15L39.288 9.246Zm-4.2 8.75 1.36-3.79c-.007.01.038-.116.104-.305.098-.28.243-.693.343-.993l.237 1.167s.645 3.244.785 3.922H35.088Z" fill="#00579F"/><path d="m8.657 18.487 3.332-9.24h3.598l-5.348 13.537H6.641L3.589 10.932c2.156 1.168 4.088 3.518 4.704 5.68l.364 1.875Z" fill="#00579F"/><path d="M5.563 9.246H.089l-.056.273c4.27 1.125 7.098 3.836 8.26 7.094l-1.19-6.228c-.196-.866-.798-1.11-1.54-1.14v.001Z" fill="#FAA61A"/></g><defs><clipPath id="oa"><path fill="#fff" transform="translate(.033)" d="M0 0h42v32H0z"/></clipPath></defs></svg><svg fill="none" viewBox="0 0 24 24" id="Youtube" xmlns="http://www.w3.org/2000/svg"><path d="m10 15 5.19-3L10 9v6Zm11.56-7.83c.13.47.22 1.1.28 1.9.07.8.1 1.49.1 2.09L22 12c0 2.19-.16 3.8-.44 4.83-.25.9-.83 1.48-1.73 1.73-.47.13-1.33.22-2.65.28-1.3.07-2.49.1-3.59.1L12 19c-4.19 0-6.8-.16-7.83-.44-.9-.25-1.48-.83-1.73-1.73-.13-.47-.22-1.1-.28-1.9-.07-.8-.1-1.49-.1-2.09L2 12c0-2.19.16-3.8.44-4.83.25-.9.83-1.48 1.73-1.73.47-.13 1.33-.22 2.65-.28 1.3-.07 2.49-.1 3.59-.1L12 5c4.19 0 6.8.16 7.83.44.9.25 1.48.83 1.73 1.73Z" fill="#5C5F6A"/></svg><svg fill="none" viewBox="0 0 24 24" id="car" xmlns="http://www.w3.org/2000/svg"><path d="M15.7 16.73V5.099c0-.946-.767-1.714-1.714-1.714H2.918c-.946 0-1.714.768-1.714 1.714v11.359c0 .947.768 1.714 1.714 1.714h1.286m18.592-6.674h-7.093m4.786 6.354h.59c.948 0 1.715-.767 1.715-1.714v-5.145l-2.387-4.887a1.714 1.714 0 0 0-1.54-.962H16.01m-1.306 13.028H9.668m-5.379.052a2.393 2.393 0 1 0 4.787 0 2.393 2.393 0 0 0-4.787 0Zm10.864 0a2.393 2.393 0 1 0 4.786 0 2.393 2.393 0 0 0-4.786 0Z" stroke="#0E1422" stroke-width="1.714" stroke-linecap="round" stroke-linejoin="round"/></svg><svg fill="none" viewBox="0 0 20 21" id="card" xmlns="http://www.w3.org/2000/svg"><path d="M1 1.5h3.383L5.59 13.477a1.384 1.384 0 0 0 1.385 1.177h8.728a1.386 1.386 0 0 0 1.385-.942l1.843-5.538a1.383 1.383 0 0 0-.194-1.246 1.385 1.385 0 0 0-1.191-.582H4.868" stroke="#5C5F6A" stroke-width="1.429" stroke-linecap="round" stroke-linejoin="round"/><path d="M15.467 19.5a.693.693 0 1 1 0-1.386.693.693 0 0 1 0 1.386ZM6.461 19.5a.693.693 0 1 1 0-1.386.693.693 0 0 1 0 1.386Z" fill="#5C5F6A" stroke="#5C5F6A" stroke-width="1.429" stroke-linecap="round" stroke-linejoin="round"/><path d="M9.562 9.115v2.77M13.718 9.115v2.77" stroke="#5C5F6A" stroke-width="1.429" stroke-linecap="round" stroke-linejoin="round"/></svg><svg fill="none" viewBox="0 0 24 24" id="medal" xmlns="http://www.w3.org/2000/svg"><path d="M6.052 13.27 3 18.576l3.297-.887L7.181 21l2.648-4.605m8.12-3.125L21 18.576l-3.297-.887L16.819 21l-2.648-4.605M18.86 9.89c0 3.805-3.073 6.89-6.863 6.89-3.79 0-6.862-3.085-6.862-6.89C5.134 6.085 8.206 3 11.996 3s6.863 3.085 6.863 6.89Zm-6.582-3.74.945 1.908a.298.298 0 0 0 .242.177l2.1.32a.318.318 0 0 1 .267.398.321.321 0 0 1-.092.154l-1.55 1.478a.31.31 0 0 0 0 .287l.297 2.097a.322.322 0 0 1-.296.386.318.318 0 0 1-.176-.044l-1.869-.993a.373.373 0 0 0-.308 0l-1.868.993a.318.318 0 0 1-.458-.16.32.32 0 0 1-.015-.182l.352-2.097a.31.31 0 0 0-.055-.287l-1.55-1.49a.32.32 0 0 1 .176-.54l2.1-.31a.296.296 0 0 0 .241-.176l.946-1.909a.319.319 0 0 1 .571-.01Z" stroke="#0E1422" stroke-width="1.43" stroke-linecap="round" stroke-linejoin="round"/></svg><svg fill="none" viewBox="0 0 24 24" id="safety" xmlns="http://www.w3.org/2000/svg"><path d="m15.727 8.279-4.964 5.581L8.281 12m4.162 7.918c-.285.11-.601.11-.886 0A11.777 11.777 0 0 1 4 8.92V5.23A1.23 1.23 0 0 1 5.23 4h13.54A1.231 1.231 0 0 1 20 5.23v3.69a11.768 11.768 0 0 1-7.557 10.998Z" stroke="#0E1422" stroke-width="1.43" stroke-linecap="round" stroke-linejoin="round"/></svg></svg>